<?xml version="1.0" encoding="utf-8"?>
<!-- Generator: Adobe Illustrator 18.1.1, SVG Export Plug-In . SVG Version: 6.00 Build 0)  -->
<svg version="1.1" id="Layer_1" xmlns="http://www.w3.org/2000/svg" xmlns:xlink="http://www.w3.org/1999/xlink" x="0px" y="0px"
	 viewBox="0 0 500 600" enable-background="new 0 0 500 600" xml:space="preserve">
<g>
	<g>
		<path fill="#231F20" stroke="#000000" stroke-miterlimit="10" d="M181.1,200.8c0,0,34.1-37.6,40.7-38.4c0,0,16.2-8.1,18.5-13.3
			c0,0,22-9.6,37.2-3c0,0,27.7,45.6,31.4,43.1c0,0,15.7,11.5,20,26.3L181.1,200.8z"/>
		<path fill="#333333" stroke="#000000" stroke-miterlimit="10" d="M308.9,189.3c0,0,15.7,9.8,20,26.3L181.1,208
			c0,0-7.9,0,16.5-24.8C197.7,183.3,277.1,161.8,308.9,189.3z"/>
		<path fill="#231F20" stroke="#000000" stroke-miterlimit="10" d="M346.5,343.2L154.7,337c-4.1-0.1-8-1.8-11-4.8
			c-14-14-49.4-58.6-10.6-123.9c2.4-4,6.2-7,10.5-8c34.2-8.5,191-40.8,236.7,70.3c0.7,1.6,1.1,3.3,1.3,5.1c1.1,9.5,2.3,40-23.8,63.3
			C354.7,341.8,350.6,343.3,346.5,343.2z"/>
		<ellipse fill="#FFE9DF" stroke="#000000" stroke-miterlimit="10" cx="249.3" cy="311.1" rx="92.6" ry="94.9"/>
		<g>
			<ellipse stroke="#000000" stroke-miterlimit="10" cx="204.9" cy="297.6" rx="8.9" ry="24"/>
			<ellipse stroke="#000000" stroke-miterlimit="10" cx="293.6" cy="297.6" rx="8.9" ry="24"/>
		</g>
		<path fill="#624331" stroke="#000000" stroke-miterlimit="10" d="M159.2,270.6c0,0,73.6,23,153.3,20.5c0,0,21,1.3,33.1,13.4
			c0,0,2-72-76.3-91.2c-3.3-0.8-7-1.4-10.4-1.3C239.9,212.1,174.2,217.4,159.2,270.6z"/>
		<path fill="#231F20" stroke="#000000" stroke-miterlimit="10" d="M134.9,287.1c0,0,31.1-29,79.8-41.7c34.1-8.9,58-7.2,76.8-0.5
			c22.6,8,46.4,20.2,71.2,39.1c0,0-32.7-62.4-98.4-70.8c0,0-36-4.9-67.2,8.8C172.8,232.6,155.4,256.8,134.9,287.1z"/>
		<g>
			<path fill="#97162B" stroke="#231F20" stroke-miterlimit="10" d="M232.2,396.1c0,0-6.5-13.2-16.2-14.5l-47.1-12.5
				c0,0-18.9,37.5,0,68.4l50.3-6.5c0,0,11.4-10.5,13-17.1L232.2,396.1L232.2,396.1z"/>
			<path fill="#97162B" stroke="#231F20" stroke-miterlimit="10" d="M232.2,406.9c0,0-27.2,3.1-28.5,7.7"/>
			<path fill="#97162B" stroke="#231F20" stroke-miterlimit="10" d="M234.8,403.4c0,0-27.2-3.1-28.5-7.7"/>
			<path fill="#97162B" stroke="#231F20" stroke-miterlimit="10" d="M266.4,396.1c0,0,6.5-13.2,16.2-14.5l47.1-12.5
				c0,0,18.9,37.5,0,68.4l-50.3-6.5c0,0-11.4-10.5-13-17.1L266.4,396.1L266.4,396.1z"/>
			<path fill="#97162B" stroke="#231F20" stroke-miterlimit="10" d="M266.4,406.9c0,0,27.2,3.1,28.5,7.7"/>
			<path fill="#97162B" stroke="#231F20" stroke-miterlimit="10" d="M263.7,403.4c0,0,27.2-3.1,28.5-7.7"/>
			<path fill="#97162B" stroke="#231F20" stroke-miterlimit="10" d="M229,394.2c0,0,19-6.2,39.5,0v24.3c0,0-23,8.6-39.5,0V394.2z"/>
		</g>
		<g>
			<g>
				<path fill="#231F20" d="M149.2,235.7c18-6.3,35.9-12.6,53.9-18.9c1.8-0.7,1-3.5-0.8-2.9c-18,6.3-35.9,12.6-53.9,18.9
					C146.7,233.5,147.4,236.4,149.2,235.7L149.2,235.7z"/>
			</g>
		</g>
		<g>
			<g>
				<path fill="#231F20" d="M130.4,293.1c5.8-10.4,12.9-19.9,21-28.5c-0.8-0.6-1.5-1.2-2.3-1.8c-4.2,5.8-6.9,12.3-8,19.4
					c-0.2,1.5,1.3,2.4,2.5,1.4c5.7-4.9,10.4-10.7,14-17.3c0.8-1.5-1.1-3-2.3-1.8c-2.6,2.6-4.6,5.5-6.2,8.8c-0.8,1.8,1.4,3,2.6,1.5
					c3.6-4.6,6.2-9.9,7.9-15.5c0.5-1.5-1.4-2.3-2.5-1.4c-3.2,2.6-5.9,5.5-8.2,8.9c0.9,0.4,1.8,0.8,2.7,1.1c2.8-6.8,6-13.4,9.6-19.8
					c0.8-1.4-1.2-3.2-2.3-1.8c-3.2,4.2-6,8.5-8.4,13.2c-0.7,1.4,1.1,3,2.3,1.8c9.9-10.2,20.4-19.7,31.5-28.6
					c-0.8-0.6-1.5-1.2-2.3-1.8c-2.1,2.7-4.6,5.1-7.4,7c0.7,0.7,1.4,1.4,2,2c2.6-5.1,5.7-9.8,9.6-13.9c1.3-1.4-0.7-3.3-2.1-2.1
					c-7,6.1-13.7,12.6-19.9,19.5c-1.1,1.2,0.4,3.3,1.8,2.3c14.3-10.1,29-19.5,44-28.3c1.4-0.8,0.5-3.2-1.1-2.7
					c-6.3,2-12.7,3.9-19,5.9c0.4,0.9,0.8,1.8,1.1,2.7c7.6-5.7,16.1-9.3,25.4-11c-0.4-0.9-0.8-1.8-1.1-2.7c-1.5,1.1-3.1,2.3-4.6,3.4
					c-1.1,0.8-0.8,2.9,0.8,2.8c12.2-0.5,24.1-2.9,35.6-7c1.8-0.7,1.1-3.2-0.8-2.9c-7.2,1.1-14.4,2.2-21.6,3.3
					c-1.7,0.2-1.3,2.9,0.4,2.9c14.9-0.1,29.8-0.2,44.8-0.4c0-1,0-2,0-3c-8,0.9-16,1-24,0.1c0,1,0,2,0,3c19.8,1.3,39.4,4,58.8,8.1
					c0.1-1,0.2-2,0.4-2.9c-8.6,1.1-17.4,1.1-26-0.2c-1.8-0.3-2.7,2.4-0.8,2.9c12.6,3.3,25.1,7.1,37.4,11.4c0.1-1,0.2-2,0.4-2.9
					c-3.4,0.2-6.5-0.3-9.7-1.5c-1.5-0.6-2.7,2-1.1,2.7c11.5,5.2,22.6,11.2,33.2,18.2c0.5-0.8,1-1.7,1.5-2.6c-3.8-2-7.6-4-11.4-6.1
					c-1.4-0.8-3.2,1.2-1.8,2.3c8.9,7.3,17.9,14.7,26.8,22c1.5,1.2,3.5-0.7,2.1-2.1c-2.4-2.6-4.7-5.1-7.1-7.6
					c-0.8-0.8-2.3-0.4-2.5,0.7c-1,4,0.1,8,3,11c1.2,1.3,3-0.4,2.3-1.8c-1.1-2.6-2.2-5.1-3.3-7.6c-0.8,0.5-1.7,1-2.6,1.5
					c0.8,1.2,1.5,2.6,2.3,3.8c0.8-0.6,1.5-1.2,2.3-1.8c-3.9-4.2-8.3-7.9-13.5-10.4c-1.4-0.7-3.2,1.2-1.8,2.3
					c10.7,9.1,19.8,19.8,27,31.9c0.8-0.6,1.5-1.2,2.3-1.8c-6.2-5.5-17.3-9.7-17-19.5c0.1-1.9-2.9-1.9-3,0c-0.3,11,11,15.4,17.9,21.5
					c1.2,1.1,3.3-0.3,2.3-1.8c-7.4-12.3-16.6-23.2-27.5-32.5c-0.6,0.8-1.2,1.5-1.8,2.3c4.9,2.4,9.1,5.9,12.9,9.9
					c1.1,1.2,3.2-0.4,2.3-1.8c-0.8-1.2-1.5-2.6-2.3-3.8c-1-1.7-3.3-0.2-2.6,1.5c1.1,2.6,2.2,5.1,3.3,7.6c0.8-0.6,1.5-1.2,2.3-1.8
					c-2.1-2.3-2.9-5.1-2.2-8.1c-0.8,0.2-1.7,0.4-2.5,0.7c2.4,2.6,4.7,5.1,7.1,7.6c0.7-0.7,1.4-1.4,2.1-2.1
					c-8.9-7.3-17.9-14.7-26.8-22c-0.6,0.8-1.2,1.5-1.8,2.3c3.8,2,7.6,4,11.4,6.1c1.7,0.9,3.1-1.5,1.5-2.6
					c-10.5-6.9-21.6-13-33.2-18.2c-0.4,0.9-0.8,1.8-1.1,2.7c3.4,1.3,6.9,1.8,10.5,1.6c1.7-0.1,2-2.4,0.4-2.9
					c-12.3-4.3-24.8-8.2-37.4-11.4c-0.2,1-0.5,1.9-0.8,2.9c8.9,1.4,17.9,1.5,26.8,0.4c1.5-0.2,2.2-2.6,0.4-2.9
					c-19.6-4.2-39.5-6.9-59.5-8.2c-1.9-0.1-1.8,2.8,0,3c8,0.8,16,0.8,24-0.1c1.8-0.2,2-3,0-3c-14.9,0.1-29.8,0.2-44.8,0.4
					c0.1,1,0.2,2,0.4,2.9c7.2-1.1,14.4-2.2,21.6-3.3c-0.2-1-0.5-1.9-0.8-2.9c-11.2,4-22.9,6.4-34.8,6.8c0.2,1,0.5,1.8,0.8,2.8
					c1.5-1.1,3.1-2.3,4.6-3.4c1.4-1,0.5-3-1.1-2.7c-9.5,1.7-18.4,5.5-26.1,11.2c-1.2,1-0.6,3.3,1.1,2.7c6.3-2,12.7-3.9,19-5.9
					c-0.4-0.9-0.8-1.8-1.1-2.7c-15.1,8.8-29.8,18.3-44,28.3c0.6,0.8,1.2,1.5,1.8,2.3c6.2-6.9,12.9-13.4,19.9-19.5
					c-0.7-0.7-1.4-1.4-2.1-2.1c-4,4.3-7.4,9.2-10.1,14.5c-0.6,1.2,0.7,2.9,2,2c3.3-2.2,6.1-4.9,8.5-8c1.1-1.4-1.1-2.7-2.3-1.8
					c-11.1,8.9-21.6,18.4-31.5,28.6c0.8,0.6,1.5,1.2,2.3,1.8c2.3-4.5,4.9-8.6,7.9-12.6c-0.8-0.6-1.5-1.2-2.3-1.8
					c-3.7,6.7-7,13.5-9.9,20.5c-0.7,1.7,1.8,2.4,2.7,1.1c2.1-3.2,4.8-5.9,7.7-8.2c-0.8-0.5-1.7-1-2.5-1.4
					c-1.6,5.4-4.1,10.3-7.6,14.8c0.8,0.5,1.7,1,2.6,1.5c1.5-3,3.3-5.7,5.8-8.1c-0.8-0.6-1.5-1.2-2.3-1.8c-3.5,6.4-8,11.9-13.5,16.7
					c0.8,0.5,1.7,1,2.5,1.4c1.1-6.8,3.7-13.1,7.7-18.7c1-1.4-1.2-3-2.3-1.8c-8.3,8.8-15.5,18.6-21.5,29.2
					C126.9,293.3,129.5,294.8,130.4,293.1L130.4,293.1z"/>
			</g>
		</g>
		<g>
			<g>
				<path fill="#231F20" d="M335.5,252.5c0.7,5.8,2.3,11.3,4.8,16.5c0.8,1.7,3.4,0.2,2.6-1.5c-2.3-4.8-3.8-9.8-4.4-15
					C338.3,250.6,335.3,250.6,335.5,252.5L335.5,252.5z"/>
			</g>
		</g>
		<g>
			<g>
				<path fill="#231F20" d="M340.8,255.5c1,5.5,3.5,10.5,7.3,14.6c0.8,0.9,2.6,0.2,2.6-1.1c-0.7-9.2-7.7-15.7-15.1-20.4
					c-1.1-0.7-2.1,0.2-2.3,1.3c-0.5,4.5,0.9,8.6,3.9,11.8c0.8,0.9,2.6,0.2,2.6-1.1c-0.4-6.5-6.8-8.4-10.1-13.2
					c-1.1-1.6-3.6-0.1-2.6,1.5c4.6,7.5,12.4,12.2,21.1,13c1.4,0.1,1.8-1.7,1.1-2.6c-6.1-6.5-12.9-12.2-20.5-16.9
					c-1.6-1-3.2,1.5-1.5,2.6c7.4,4.6,14,10.1,19.9,16.4c0.4-0.8,0.7-1.7,1.1-2.6c-7.7-0.7-14.5-5-18.6-11.5c-0.8,0.5-1.7,1-2.6,1.5
					c2.6,4,9.3,6.5,9.6,11.7c0.8-0.4,1.7-0.7,2.6-1.1c-2.5-2.7-3.5-6.1-3.1-9.8c-0.8,0.4-1.5,0.8-2.3,1.3c6.4,4.1,13,9.8,13.6,17.9
					c0.8-0.4,1.7-0.7,2.6-1.1c-3.5-3.8-5.7-8.2-6.5-13.3C343.3,252.9,340.5,253.6,340.8,255.5L340.8,255.5z"/>
			</g>
		</g>
		<g>
			<g>
				<path fill="#231F20" d="M147.3,255.8c0.5,5.7,5.5,10.2,11.3,9c7-1.4,9.8-8.6,11.8-14.6c0.6-1.8-2.3-2.6-2.9-0.8
					c-1.4,4.2-2.9,8.9-6.8,11.4c-4.3,2.7-10,0.3-10.5-5C150.1,253.9,147.1,253.9,147.3,255.8L147.3,255.8z"/>
			</g>
		</g>
		<g>
			<g>
				<path fill="#231F20" d="M167.1,229.2c-2.9,4.8-5.2,9.8-7,15c-0.6,1.7,1.8,2.4,2.7,1.1c2.1-3.1,4.5-6.1,6.9-8.9
					c1.2-1.4-0.8-3.6-2.1-2.1c-2.6,3-5.1,6.2-7.4,9.6c0.9,0.4,1.8,0.8,2.7,1.1c1.7-5,4-9.8,6.7-14.3
					C170.7,229,168.1,227.6,167.1,229.2L167.1,229.2z"/>
			</g>
		</g>
		<g>
			<g>
				<path fill="#231F20" d="M180.8,232.9c29.9-15.4,63.9-21.9,97.3-18.7c0-1,0-2,0-3c-16.8,0.2-33.6,0.3-50.4,0.5
					c-15.8,0.2-31.7,1-46.8,6.1c-1.7,0.5-1.2,2.7,0.4,2.9c9.8,1,19.5,1.3,29.3,1c-0.1-1-0.2-2-0.4-2.9c-6.9,1.2-13.9,1.6-20.8,1.2
					c-1.9-0.1-1.9,2.9,0,3c7.3,0.5,14.5,0,21.6-1.3c1.7-0.3,1.2-3-0.4-2.9c-9.8,0.4-19.6,0.1-29.3-1c0.1,1,0.2,2,0.4,2.9
					c15.2-5.1,31.2-5.8,47.1-6c16.4-0.2,32.9-0.3,49.3-0.5c2,0,1.8-2.8,0-3c-34-3.3-68.5,3.5-98.9,19
					C177.6,231.2,179,233.8,180.8,232.9L180.8,232.9z"/>
			</g>
		</g>
		<g>
			<g>
				<path fill="#231F20" d="M133.8,274.2c-0.3,6.2,0.3,12.4,1.7,18.6c0.2,1.1,1.7,1.4,2.5,0.7c3.6-3.7,6-8.1,7.2-13.1
					c-1-0.2-1.9-0.5-2.9-0.8c-0.5,2.2-1,4.3-1.5,6.5c1,0,1.9,0,2.9,0c-0.7-2.3-1.3-4.6-2-7c-0.3-1.1-2.2-1.5-2.7-0.4
					c-0.8,1.8-1.4,3.7-1.8,5.7c1,0.1,2,0.2,2.9,0.4c-0.2-3.9-0.5-7.8-0.8-11.7c-0.1-1.7-2.4-2.1-2.9-0.4c-1.4,4.8-2,9.6-1.6,14.6
					c0.1,1,1.2,2,2.3,1.3c5.6-4.2,9.5-9.9,11.5-16.7c-0.8,0.2-1.7,0.4-2.5,0.7c0.8,1,1.3,2,1.3,3.3c0.1,1.3,1.5,1.9,2.6,1.1
					c3.8-3.1,6.7-6.8,9-11.1c-1-0.2-1.8-0.5-2.8-0.8c-0.1,1.8-0.2,3.6-0.4,5.4c-0.1,1.6,2,1.8,2.8,0.8c0.8-1.1,1.5-2.2,2.3-3.3
					c-0.9-0.4-1.8-0.8-2.7-1.1c-0.3,0.8-0.5,1.7-0.8,2.5c-0.5,1.4,1.5,2.6,2.5,1.4c1.1-1.4,2-2.9,2.8-4.5c-0.9-0.4-1.8-0.8-2.7-1.1
					c-0.1,0.8-0.3,1.5-0.4,2.3c-0.4,1.8,2.5,2.7,2.9,0.8c0.1-0.8,0.3-1.5,0.4-2.3c0.3-1.5-2-2.8-2.7-1.1c-0.7,1.4-1.4,2.7-2.3,3.9
					c0.8,0.5,1.7,1,2.5,1.4c0.3-0.8,0.5-1.7,0.8-2.5c0.6-1.7-1.8-2.4-2.7-1.1c-0.8,1.1-1.5,2.2-2.3,3.3c1,0.2,1.8,0.5,2.8,0.8
					c0.1-1.8,0.2-3.6,0.4-5.4c0.1-1.5-2.1-2-2.8-0.8c-2.1,4.1-5,7.6-8.5,10.5c0.8,0.4,1.7,0.7,2.6,1.1c-0.2-2.1-0.8-3.7-2.1-5.4
					c-0.7-1-2.2-0.3-2.5,0.7c-1.7,6-5.2,11.1-10.1,14.9c0.8,0.4,1.5,0.8,2.3,1.3c-0.4-4.7,0.1-9.3,1.5-13.9c-1-0.1-2-0.2-2.9-0.4
					c0.2,3.9,0.5,7.8,0.8,11.7c0.1,1.6,2.6,2.1,2.9,0.4c0.4-1.7,0.8-3.3,1.5-4.9c-0.9-0.1-1.8-0.2-2.7-0.4c0.7,2.3,1.3,4.6,2,7
					c0.4,1.4,2.6,1.5,2.9,0c0.5-2.2,1-4.3,1.5-6.5c0.4-1.8-2.4-2.7-2.9-0.8c-1.1,4.5-3.2,8.5-6.4,11.8c0.8,0.2,1.7,0.4,2.5,0.7
					c-1.4-5.8-1.9-11.7-1.6-17.7C136.8,272.3,133.8,272.3,133.8,274.2L133.8,274.2z"/>
			</g>
		</g>
		<g>
			<g>
				<path fill="#231F20" d="M358.8,279.7c-0.5-7.4-5.4-13.8-12.4-16.1c-1-0.4-2.3,0.8-1.8,1.8c1.7,4.2,3.6,8.6,7.9,10.6
					c1.5,0.7,3-1.1,1.8-2.3c-3.7-3.9-7.9-7.1-12.5-9.9c-1-0.6-2.7,0.4-2.2,1.7c1.7,4,4.1,7.4,7.4,10.3c1.4,1.2,3.6-0.8,2.1-2.1
					c-2.9-2.5-5.2-5.4-6.7-9c-0.7,0.5-1.4,1.1-2.2,1.7c4.4,2.6,8.3,5.7,11.8,9.4c0.6-0.8,1.2-1.5,1.8-2.3c-3.6-1.7-5.2-5.3-6.5-8.8
					c-0.6,0.6-1.2,1.2-1.8,1.8c5.8,1.9,9.8,7.2,10.2,13.3C355.9,281.6,358.9,281.6,358.8,279.7L358.8,279.7z"/>
			</g>
		</g>
	</g>
	<g>
		<path d="M98.7,300.9l3.8,17.7l-33.6,7.3l2.5,11.5l-1.8,0.4L60.9,297l1.8-0.4l2.5,11.5L98.7,300.9z"/>
		<path d="M59.9,284.6l1.3-17.1l17.1,1.3l0.7-8.5l-17.1-1.3l1.3-17.1l36.1,2.7L98,261.7l-17.1-1.3l-0.7,8.5l17.1,1.3l-1.3,17.1
			L59.9,284.6z"/>
		<path d="M67.3,226.8l12.3-32.6l1.7,0.7l-6,15.7l13.6,5.1l4.5-11.8l1.7,0.7l-4.5,11.8l15.2,5.8l6.2-16.5l1.7,0.7L101,239.6
			L67.3,226.8z"/>
		<path d="M104,157l24.5-24.8l1.3,1.2l-11.8,11.9l11.3,11.1l10.2-10.3l1.3,1.2l-10.2,10.3l11.9,11.8l-12.7,12.9L104,157z"/>
		<path d="M137.6,125.5l29.8-18l1,1.5l-14.3,8.7l7.5,12.4l10.8-6.5l1,1.5l-10.8,6.5l8.5,13.9l15.1-9.1l1,1.5l-30.6,18.5L137.6,125.5
			z"/>
		<path d="M179.9,101.6l24.5-6.4c10.5-2.7,20.1-2,23.9,12.5c3.8,14.5-4.2,19.8-14.7,22.6l-24.5,6.4L179.9,101.6z M197.9,98.8
			l8.2,31.5l7.4-2l-8.2-31.5L197.9,98.8z"/>
		<path d="M264.6,90.1c10.8,0.7,19.7,4.5,18.7,19.8c-1,15.4-10.2,18-21.1,17.3l-7.2-0.5c-10.8-0.7-19.7-4.5-18.7-19.8
			s10.2-18,21.1-17.3L264.6,90.1z M254.2,124.8l9,0.6l2.1-33.5l-9-0.6L254.2,124.8z"/>
		<path d="M308.3,122.7l-0.4-0.2l-5.5,13.4l-16.8-6.8l13.6-33.6l23,9.4c10.5,4.3,17.7,10.6,14.8,17.7c-1.7,4.2-5.8,5.7-10.2,5.4
			l-0.2,0.4l2.1,18.2l-18.7-7.6L308.3,122.7z M321.7,106.6l-6.3-2.6l-6.8,16.8l6.3,2.6L321.7,106.6z"/>
		<path d="M329.6,147.6l-1.5-1.3l35.1-17.7l13.9,11.8l-11.8,37.4l-14.9-12.6l10.3-33.5L329.6,147.6z"/>
		<path d="M424.4,226.1l-33.5-1.1l-2-5.8l21.8-26.7l-27.7,9.8l-0.6-1.7l34.2-12.1l6.3,17.9l-14.3,17.3l20.7,0.7l6,17.1L401,253.6
			l-6-17.1L424.4,226.1z"/>
		<path d="M400.7,257.9l0.1-2l36,15.9l-0.3,18.3l-36.5,14.6l0.3-19.5l32.4-13.3L400.7,257.9z"/>
		<path d="M427.3,336.1l-33.6,7.7l27.9,9.2l-0.6,1.7l-34.3-11.4l5.9-17.9l33.6-7.7l-27.9-9.2l0.6-1.7l34.4,11.4L427.3,336.1z"/>
	</g>
	<g>
		<path d="M40,467l-10.1,25.8h-5.1L10,468.5v24.3H8.5v-30h15.7l9.6,16l6.2-16h15v30H40V467z"/>
		<path d="M77.9,479.3v-7.9h-5.6c-4.9,0-8.3,1.1-8.3,4.5h-1.5c0-4.1,3.8-6,9.8-6h5.6c7.9,0,13.1,2.3,13.1,9.3v13.5H78.6l-0.4-1.5
			h-0.4c-1.5,0.8-4.1,1.8-8.3,1.8c-4.5,0-10.1-1.8-10.1-6.9c0-5.1,5.6-6.9,10.1-6.9L77.9,479.3L77.9,479.3z M77.9,489.9v-9h-4.1
			v10.5C75.2,491.2,76.8,490.6,77.9,489.9z"/>
		<path d="M109.3,475.2v16.5c4.9,0,8.3-1.1,8.3-4.5h1.5c0,4.1-3.8,6-9.8,6c-7.9,0-13.1-2.3-13.1-9.3v-21h13.1v10.9h6.7v1.5H109.3z"
			/>
		<path d="M135.2,475.2v16.5c4.9,0,8.3-1.1,8.3-4.5h1.5c0,4.1-3.8,6-9.8,6c-7.9,0-13.1-2.3-13.1-9.3v-21h13.1v10.9h6.7v1.5H135.2z"
			/>
		<path d="M166.7,492.9v-21h-5.2v21h-13.1v-30h13.1v7.5h6c7.1,0,12.4,1.8,12.4,8v14.5H166.7z"/>
		<path d="M199.3,470c11.2,0,15,1.8,15,12.4h-16.1v9.3h6c4.9,0,8.3-1.1,8.3-5.6h1.5c0,5.2-3.7,7.1-9.8,7.1h-6.7
			c-7.9,0-13.1-2.3-13.1-11.6C184.3,472.3,189.6,470,199.3,470z M198.2,480.8h14.6c0-8.3-3.4-9.3-14.6-9.3V480.8z"/>
		<path d="M222.9,492.9l-6.7-22.5h13.9l5.4,18.8l6.2-18.8h4.9l8.3,17l5.1-17h1.7l-6.8,22.5h-12.2l-4.1-8.5l-2.8,8.5H222.9z"/>
		<path d="M309.5,492.9h-15v-28.5h-9.8v-1.5h34.5v1.5h-9.8L309.5,492.9L309.5,492.9z"/>
		<path d="M332.7,470c11.2,0,15,1.8,15,12.4h-16.1v9.3h6c4.9,0,8.3-1.1,8.3-5.6h1.5c0,5.2-3.8,7.1-9.8,7.1h-6.7
			c-7.9,0-13.1-2.3-13.1-11.6C317.7,472.3,323,470,332.7,470z M331.6,480.8h14.6c0-8.3-3.4-9.3-14.6-9.3V480.8z"/>
		<path d="M369,479.3v-7.9h-5.6c-4.9,0-8.3,1.1-8.3,4.5h-1.5c0-4.1,3.8-6,9.8-6h5.6c7.9,0,13.1,2.3,13.1,9.3v13.5h-12.4l-0.4-1.5
			H369c-1.5,0.8-4.1,1.8-8.3,1.8c-4.5,0-10.1-1.8-10.1-6.9c0-5.1,5.6-6.9,10.1-6.9L369,479.3L369,479.3z M369,489.9v-9h-4.1v10.5
			C366.4,491.2,368,490.6,369,489.9z"/>
		<path d="M400.5,492.9c-8.6,0-13.9-1.8-13.9-11.3c0-9.3,5.2-11.2,13.9-11.2h18.8v1.5h-3.8v0.4c2.6,1.7,4.1,4.5,4.1,7.5
			c0,7.9-5.2,9.3-13.9,9.3h-5.6v2.3h10.1c4.5,0,8.3,0.8,8.3,4.7c0,3.9-3.8,4.7-8.3,4.7h-12c-6,0-9.8-1.8-9.8-6h1.5
			c0,3.4,3.4,4.5,8.3,4.5h7.9v-6.4H400.5z M400.2,487.6h6v-15.7h-6V487.6z"/>
		<path d="M424.2,484.8v-14.4h13.1v21.2c1.8-0.2,4.1-1.1,5.2-1.8v-19.3h13.1v22.4h-12.4l-0.4-1.5h-0.4c-1.5,0.8-4.1,1.8-8.3,1.8
			C429.4,493.2,424.2,491,424.2,484.8z"/>
		<path d="M475.5,470c11.2,0,15,1.8,15,12.4h-16.1v9.3h6c4.9,0,8.3-1.1,8.3-5.6h1.5c0,5.2-3.7,7.1-9.8,7.1h-6.7
			c-7.9,0-13.1-2.3-13.1-11.6C460.5,472.3,465.8,470,475.5,470z M474.4,480.8H489c0-8.3-3.4-9.3-14.6-9.3V480.8z"/>
	</g>
	<g>
		<g>
			<path fill="#231F20" d="M221.8,212.6c-18.6,1.6-36.2,9-50.5,21.1c-1.2,1,0.1,2.8,1.4,2.5c10.9-2.7,21.7-5.8,32.4-9.3
				c1.3-0.4,1.5-2.6,0-2.9c-6.2-1.2-12.3-1.2-18.5,0.1c0.2,1,0.5,1.9,0.8,2.9c4.3-1.3,8.6-2.6,12.8-3.9c-0.4-0.9-0.8-1.8-1.1-2.7
				c-8.1,4.9-16.4,9.5-24.9,13.8c0.5,0.8,1,1.7,1.5,2.6c3.2-2.1,6.2-4.2,9.4-6.3c-0.6-0.8-1.2-1.5-1.8-2.3
				c-15.4,13.6-29.5,28.6-42.1,44.9c0.8,0.5,1.7,1,2.5,1.4c0.7-2.2,1.8-4,3.7-5.4c-0.6-0.8-1.2-1.5-1.8-2.3
				c-6,6.7-10.7,14.4-14,22.8c1,0.2,1.9,0.5,2.9,0.8c2.4-7.2,5.3-15.1,12.2-19.1c-0.8-0.4-1.5-0.8-2.3-1.3
				c-0.5,3.8-1.7,7.4-3.5,10.7c1,0.2,1.8,0.5,2.8,0.8c0.1-2,0.1-4.1,0.2-6.1c0.1-1.8-2.4-1.9-2.9-0.4c-0.6,1.6-1.2,3.3-1.8,4.9
				c1,0.2,1.9,0.5,2.9,0.8c0.5-2.3,1.8-4,4.1-4.9c-0.5-0.2-1.1-0.5-1.7-0.7c0.7,1.5,1.1,2.9,1.4,4.5c0.1,0.8,1.1,1.3,1.8,1
				c3.5-1.2,6.4-3,9.2-5.4c-0.8-0.4-1.7-0.7-2.6-1.1c-0.4,0.4-0.7,0.8-1.1,1.2c0.6,0.4,1.3,0.7,1.8,1c-0.6-2.9-0.7-5.7-0.5-8.6
				c0.1-1.9-2.8-1.9-3,0c-0.2,2.6,0,5.1,0.8,7.6c0.4,1.1,1.7,1.4,2.5,0.7c1.4-1.3,2.3-2.7,3-4.5c0.4-1.1-0.8-2.1-1.8-1.8
				c-2,0.7-3.3,1.9-3.9,3.9c0.9-0.1,1.8-0.2,2.7-0.4c-5-10.1,4.3-19.3,12-24.5c8.1-5.5,16.8-10,25.8-13.9
				c18.2-7.8,37.4-12.9,56.4-18.5c9.7-2.9,24-9.1,31.8,0.8c0.4-0.8,0.7-1.7,1.1-2.6c-6.2-0.8-12.4-1.5-18.7-2.3
				c-1.8-0.2-1.8,2.4-0.4,2.9c7.9,3.1,16.2,4.8,24.6,4.9c1.7,0,2.1-2.6,0.4-2.9c-9.1-1.9-18.2-3.8-27.3-5.7c-0.1,1-0.2,2-0.4,2.9
				c20.4,2.3,36,17.9,54.5,25.2c5.2,2,10.6,3.7,15.6,6.2c4.6,2.4,8.6,5.6,12.1,9.4c6.9,7.4,11.6,16.6,15.8,25.8
				c0.5-0.7,1.1-1.4,1.7-2.2c-2.6-1-4.8-2.6-6.5-4.8c-1.1-1.5-3.6-0.2-2.6,1.5c2.1,3.6,4.9,6.4,8.5,8.6c1.1,0.6,2.6-0.4,2.2-1.7
				c-3.3-9-15.7-8.3-19.3-16.7c-0.4-0.8-1.4-0.8-2-0.5c-2.3,1-2.1,3.7-0.3,5.1c1,0.7,2.2-0.3,2.3-1.3c0-0.7,0.1-1.4,0.1-2.1
				c-0.7,0.5-1.2,1-1.9,1.4c9,2.1,22.2,6,21.7,17.6c1-0.2,1.8-0.5,2.8-0.8c-3.2-5.4-6.3-10.7-9.5-16c-3.2-5.3-6-11-9.6-15.9
				c-3.2-4.4-7.6-7.1-12.1-10c-5.4-3.4-10.7-6.8-16-10.2c-1.6-1-3.1,1.5-1.5,2.6c4.9,3.1,9.7,6.2,14.6,9.2
				c5.2,3.3,10.3,6.2,13.7,11.6c6.3,9.8,12,20.1,17.9,30.2c0.8,1.3,2.7,0.7,2.8-0.8c0.5-13.2-13.5-18-23.9-20.5
				c-1-0.2-1.8,0.4-1.9,1.4c0,0.7-0.1,1.4-0.1,2.1c0.8-0.4,1.5-0.8,2.3-1.3c0.1,0,0.2,0,0.3,0c-0.7-0.2-1.4-0.4-2-0.5
				c1.7,3.8,5.2,6,8.8,7.9c3.8,2,8.6,3.8,10.2,8.2c0.7-0.5,1.4-1.1,2.2-1.7c-3.2-1.8-5.6-4.3-7.4-7.5c-0.8,0.5-1.7,1-2.6,1.5
				c2.2,2.9,4.9,4.9,8.3,6.2c1.4,0.5,2.1-1.1,1.7-2.2c-6.7-14.3-14.9-29-29.5-36.5c-8-4-16.7-6.2-24.6-10.4
				c-7.3-3.8-14.2-8.4-21.4-12.4c-7.9-4.3-16.1-7.9-25.1-8.9c-1.7-0.2-2,2.6-0.4,2.9c9.1,1.9,18.2,3.8,27.3,5.7c0.1-1,0.2-2,0.4-2.9
				c-8.2-0.1-16.2-1.7-23.9-4.8c-0.1,1-0.2,2-0.4,2.9c6.2,0.8,12.4,1.5,18.7,2.3c1.4,0.2,1.7-1.7,1.1-2.6
				c-6.6-8.5-18.2-6.5-27.1-3.8c-10.8,3.2-21.8,6.3-32.6,9.6c-20.9,6.4-42.6,13.9-60.3,27c-8.3,6.1-15.8,16.3-10.7,26.9
				c0.6,1.2,2.4,0.8,2.7-0.4c0.2-1,0.8-1.6,1.8-1.8c-0.6-0.6-1.2-1.2-1.8-1.8c-0.5,1.3-1.2,2.2-2.2,3.2c0.8,0.2,1.7,0.4,2.5,0.7
				c-0.7-2.3-1-4.5-0.7-6.8c-1,0-2,0-3,0c-0.2,3.2,0,6.3,0.6,9.5c0.2,0.8,1.1,1.2,1.8,1c2-0.6,3-2,3.3-4c0.1-1.4-1.7-1.8-2.6-1.1
				c-2.4,2-5,3.5-7.9,4.6c0.6,0.4,1.3,0.7,1.8,1c-0.3-1.8-0.9-3.5-1.7-5.2c-0.3-0.5-1.1-0.9-1.7-0.7c-3.2,1.2-5.4,3.6-6.2,7
				c-0.4,1.9,2.2,2.6,2.9,0.8c0.6-1.6,1.2-3.3,1.8-4.9c-1-0.1-2-0.2-2.9-0.4c-0.1,2-0.1,4.1-0.2,6.1c-0.1,1.5,2.1,2,2.8,0.8
				c2.1-3.9,3.4-7.9,3.9-12.3c0.1-1.1-1.4-1.8-2.3-1.3c-7.6,4.5-10.8,12.9-13.6,20.9c-0.7,1.8,2.2,2.6,2.9,0.8
				c3.2-7.9,7.6-15.1,13.3-21.5c1.1-1.2-0.4-3.4-1.8-2.3c-2.5,1.8-4.2,4.2-5.1,7.1c-0.4,1.3,1.5,2.7,2.5,1.4
				c12.6-16.2,26.7-31.2,42.1-44.9c1.2-1.1-0.4-3.3-1.8-2.3c-3.2,2.1-6.2,4.2-9.4,6.3c-1.6,1.1-0.2,3.5,1.5,2.6
				c8.5-4.3,16.8-8.9,24.9-13.8c1.4-0.8,0.5-3.2-1.1-2.7c-4.3,1.3-8.6,2.6-12.8,3.9c-1.8,0.5-1.1,3.3,0.8,2.9
				c5.6-1.1,11.2-1.1,16.9-0.1c0-1,0-1.9,0-2.9c-10.7,3.5-21.5,6.5-32.4,9.3c0.5,0.8,1,1.7,1.4,2.5c13.6-11.5,30.6-18.6,48.3-20.2
				C223.7,215.4,223.7,212.4,221.8,212.6L221.8,212.6z"/>
		</g>
	</g>
	<g>
		<g>
			<path fill="#231F20" d="M198.4,219c9-0.4,18-0.9,27-1.3c-0.1-1-0.2-2-0.4-2.9c-5.2,1.9-10.5,3.1-16,3.5c-1.9,0.2-1.9,3.2,0,3
				c5.7-0.5,11.3-1.7,16.7-3.6c1.5-0.5,1.4-3-0.4-2.9c-9,0.4-18,0.9-27,1.3C196.5,216.2,196.5,219.2,198.4,219L198.4,219z"/>
		</g>
	</g>
</g>
</svg>
